HIERARCHY
ROOT hip
{
  OFFSET 0 0 0
  CHANNELS 6 Xposition Yposition Zposition Zrotation Yrotation Xrotation
  JOINT abdomen
  {
    OFFSET 0 20.6881 -0.73152
    CHANNELS 3 Zrotation Xrotation Yrotation
    JOINT chest
    {
      OFFSET 0 11.7043 -0.48768
      CHANNELS 3 Zrotation Xrotation Yrotation
      JOINT neck
      {
        OFFSET 0 22.1894 -2.19456
        CHANNELS 3 Zrotation Xrotation Yrotation
        JOINT head
        {
          OFFSET -0.24384 7.07133 1.2192
          CHANNELS 3 Zrotation Xrotation Yrotation
          JOINT leftEye
          {
            OFFSET 4.14528 8.04674 8.04672
            CHANNELS 3 Zrotation Xrotation Yrotation
            End Site
            {
              OFFSET 1 0 0
            }
          }
          JOINT rightEye
          {
            OFFSET -3.6576 8.04674 8.04672
            CHANNELS 3 Zrotation Xrotation Yrotation
            End Site
            {
              OFFSET 1 0 0
            }
          }
        }
      }
      JOINT rCollar
      {
        OFFSET -2.68224 19.2634 -4.8768
        CHANNELS 3 Zrotation Xrotation Yrotation
        JOINT rShldr
        {
          OFFSET -8.77824 -1.95073 1.46304
          CHANNELS 3 Zrotation Xrotation Yrotation
          JOINT rForeArm
          {
            OFFSET -28.1742 -1.7115 0.48768
            CHANNELS 3 Zrotation Xrotation Yrotation
            JOINT rHand
            {
              OFFSET -22.5879 0.773209 7.07136
              CHANNELS 3 Zrotation Xrotation Yrotation
              JOINT rThumb1
              {
                OFFSET -1.2192 -0.487915 3.41376
                CHANNELS 3 Zrotation Xrotation Yrotation
                JOINT rThumb2
                {
                  OFFSET -3.37035 -0.52449 3.41376
                  CHANNELS 3 Zrotation Xrotation Yrotation
                  End Site
                  {
                    OFFSET -1.78271 -1.18214 1.43049
                  }
                }
              }
              JOINT rIndex1
              {
                OFFSET -7.75947 0.938293 5.60832
                CHANNELS 3 Zrotation Xrotation Yrotation
                JOINT rIndex2
                {
                  OFFSET -2.54057 -0.884171 1.56538
                  CHANNELS 3 Zrotation Xrotation Yrotation
                  End Site
                  {
                    OFFSET -1.62519 -0.234802 1.16502
                  }
                }
              }
              JOINT rMid1
              {
                OFFSET -8.24714 1.18213 3.41376
                CHANNELS 3 Zrotation Xrotation Yrotation
                JOINT rMid2
                {
                  OFFSET -3.10165 -0.590103 1.0647
                  CHANNELS 3 Zrotation Xrotation Yrotation
                  End Site
                  {
                    OFFSET -2.48547 -0.328903 0.83742
                  }
                }
              }
              JOINT rRing1
              {
                OFFSET -8.82822 0.546677 1.51678
                CHANNELS 3 Zrotation Xrotation Yrotation
                JOINT rRing2
                {
                  OFFSET -2.60934 -0.819778 -0.0198488
                  CHANNELS 3 Zrotation Xrotation Yrotation
                  End Site
                  {
                    OFFSET -2.33842 -0.294052 0.168128
                  }
                }
              }
              JOINT rPinky1
              {
                OFFSET -8.27202 -0.0477905 -0.4584
                CHANNELS 3 Zrotation Xrotation Yrotation
                JOINT rPinky2
                {
                  OFFSET -1.82734 -0.647385 -0.700984
                  CHANNELS 3 Zrotation Xrotation Yrotation
                  End Site
                  {
                    OFFSET -1.69225 -0.51767 -0.607171
                  }
                }
              }
            }
          }
        }
      }
      JOINT lCollar
      {
        OFFSET 2.68224 19.2634 -4.8768
        CHANNELS 3 Zrotation Xrotation Yrotation
        JOINT lShldr
        {
          OFFSET 8.77824 -1.95073 1.46304
          CHANNELS 3 Zrotation Xrotation Yrotation
          JOINT lForeArm
          {
            OFFSET 28.1742 -1.7115 0.48768
            CHANNELS 3 Zrotation Xrotation Yrotation
            JOINT lHand
            {
              OFFSET 22.5879 0.773209 7.07136
              CHANNELS 3 Zrotation Xrotation Yrotation
              JOINT lThumb1
              {
                OFFSET 1.2192 -0.487915 3.41376
                CHANNELS 3 Zrotation Xrotation Yrotation
                JOINT lThumb2
                {
                  OFFSET 3.37035 -0.52449 3.41376
                  CHANNELS 3 Zrotation Xrotation Yrotation
                  End Site
                  {
                    OFFSET 1.78271 -1.18214 1.43049
                  }
                }
              }
              JOINT lIndex1
              {
                OFFSET 7.75947 0.938293 5.60832
                CHANNELS 3 Zrotation Xrotation Yrotation
                JOINT lIndex2
                {
                  OFFSET 2.54057 -0.884171 1.56538
                  CHANNELS 3 Zrotation Xrotation Yrotation
                  End Site
                  {
                    OFFSET 1.62519 -0.234802 1.16502
                  }
                }
              }
              JOINT lMid1
              {
                OFFSET 8.24714 1.18213 3.41376
                CHANNELS 3 Zrotation Xrotation Yrotation
                JOINT lMid2
                {
                  OFFSET 3.10165 -0.590103 1.0647
                  CHANNELS 3 Zrotation Xrotation Yrotation
                  End Site
                  {
                    OFFSET 2.48547 -0.328903 0.83742
                  }
                }
              }
              JOINT lRing1
              {
                OFFSET 8.82822 0.546677 1.51678
                CHANNELS 3 Zrotation Xrotation Yrotation
                JOINT lRing2
                {
                  OFFSET 2.60934 -0.819778 -0.0198488
                  CHANNELS 3 Zrotation Xrotation Yrotation
                  End Site
                  {
                    OFFSET 2.33842 -0.294052 0.168128
                  }
                }
              }
              JOINT lPinky1
              {
                OFFSET 8.27202 -0.0477905 -0.4584
                CHANNELS 3 Zrotation Xrotation Yrotation
                JOINT lPinky2
                {
                  OFFSET 1.82734 -0.647385 -0.700984
                  CHANNELS 3 Zrotation Xrotation Yrotation
                  End Site
                  {
                    OFFSET 1.69225 -0.51767 -0.607171
                  }
                }
              }
            }
          }
        }
      }
    }
  }
  JOINT rButtock
  {
    OFFSET -8.77824 4.35084 1.2192
    CHANNELS 3 Zrotation Xrotation Yrotation
    JOINT rThigh
    {
      OFFSET 0 -1.70687 -2.19456
      CHANNELS 3 Zrotation Xrotation Yrotation
      JOINT rShin
      {
        OFFSET 0 -36.8199 0.73152
        CHANNELS 3 Zrotation Xrotation Yrotation
        JOINT rFoot
        {
          OFFSET 0.73152 -45.1104 -5.12064
          CHANNELS 3 Zrotation Xrotation Yrotation
          End Site
          {
            OFFSET -1.1221 -3.69964 12.103
          }
        }
      }
    }
  }
  JOINT lButtock
  {
    OFFSET 8.77824 4.35084 1.2192
    CHANNELS 3 Zrotation Xrotation Yrotation
    JOINT lThigh
    {
      OFFSET 0 -1.70687 -2.19456
      CHANNELS 3 Zrotation Xrotation Yrotation
      JOINT lShin
      {
        OFFSET 0 -36.8199 0.73152
        CHANNELS 3 Zrotation Xrotation Yrotation
        JOINT lFoot
        {
          OFFSET -0.73152 -45.1104 -5.12064
          CHANNELS 3 Zrotation Xrotation Yrotation
          End Site
          {
            OFFSET 1.1221 -3.69964 12.103
          }
        }
      }
    }
  }
}
MOTION
Frames:	4
Frame Time:	0.03333
-0.01720065748591352 62.012783285974 0.10830993820688876 -3.259127616882324 -1.964249849319458 8.773223876953125 -2.3327574729919434 14.29423999786377 3.7940175533294678 2.6648120880126953 -9.640628814697266 1.2033061981201172 -4.9184465408325195 14.4994478225708 -3.6649210453033447 8.908845901489258 -22.162778854370117 -5.304712772369385 0.03419927880167961 0.022001158446073532 -0.026538873091340065 0.014773745089769363 -0.004360710270702839 -0.04334293678402901 0.018473949283361435 0.03800146281719208 -0.058200396597385406 46.58454132080078 40.045101165771484 17.78217124938965 -25.646297454833984 -26.343473434448242 68.59123992919922 -1.536388635635376 -10.06162166595459 -1.529987096786499 0.012506983242928982 -0.030246341601014137 0.03191601485013962 -0.002604948589578271 0.024993613362312317 -0.017771288752555847 -0.0258820541203022 0.04688132926821709 -0.02912265993654728 7.701797008514404 5.485785484313965 0.3791157901287079 0.05913623794913292 0.015355155803263187 0.0004770061350427568 2.9496402740478516 0.9182510375976562 0.07587666809558868 -0.10172247886657715 -0.012241206131875515 0.023158496245741844 10.303282737731934 0.7405893206596375 0.02189665473997593 0.03135877475142479 -0.08017414063215256 0.015607289038598537 2.2511024475097656 -0.691165566444397 -0.24147196114063263 -0.011610712856054306 -0.0007337626884691417 -0.008805125951766968 -54.8715705871582 40.361000061035156 -25.520177841186523 24.812877655029297 -23.48659324645996 -65.32584381103516 1.8304224014282227 -14.440674781799316 1.9705173969268799 -0.023967094719409943 -0.0320250540971756 -0.007773103658109903 -0.03305894136428833 0.017967965453863144 -0.0037762096617370844 -0.018586277961730957 -0.07339553534984589 -0.0181040707975626 -7.6707892417907715 5.508349418640137 -0.38718295097351074 0.01538932416588068 -0.0024216962046921253 -0.016307100653648376 -2.876845359802246 0.9818280339241028 -0.1194530501961708 -0.05526285991072655 -0.05576620250940323 -0.02868843637406826 -10.258219718933105 0.7140518426895142 -0.019160006195306778 -0.06500169634819031 -0.007007535547018051 0.017610963433980942 -2.176950454711914 -0.7367568016052246 0.2551872134208679 0.035080328583717346 0.027796009555459023 -0.01580536924302578 -24.778732299804688 -41.791717529296875 -18.741487503051758 -1.3238266706466675 65.08960723876953 2.4262287616729736 -4.58323335647583 -11.702348709106445 -9.860467910766602 0.0316176675260067 -0.048657406121492386 -0.04793886840343475 30.132644653320312 -42.78392028808594 20.988645553588867 1.3329359292984009 65.98873138427734 -2.4495112895965576 4.906868934631348 -11.545458793640137 13.01213550567627
-0.053189244387828044 62.6253692922541 0.19117341969151322 -3.270382881164551 -1.861532211303711 9.05587387084961 -2.265746593475342 14.082249641418457 3.651583194732666 2.6884663105010986 -9.52737808227539 1.116991400718689 -4.923203945159912 14.504631996154785 -3.632596015930176 8.861109733581543 -22.098304748535156 -5.237007141113281 0.06830444931983948 0.02528713271021843 -0.056532591581344604 0.018732799217104912 0.0006749272579327226 -0.04007107391953468 0.08574613183736801 0.056301988661289215 -0.07588285952806473 46.55101776123047 40.147987365722656 17.943906784057617 -25.63484001159668 -26.345970153808594 68.54925537109375 -1.5440707206726074 -10.126530647277832 -1.5671316385269165 0.00701639149338007 -0.05183512344956398 0.04137338697910309 -0.016084574162960052 0.017793985083699226 -0.029718244448304176 -0.034239932894706726 0.0860738679766655 -0.028821159154176712 7.6819257736206055 5.522800922393799 0.3340621292591095 0.09348582476377487 0.0731232613325119 0.00994888972491026 2.953944206237793 0.8762116432189941 0.04412751644849777 -0.15691794455051422 -0.02941678836941719 0.007105955854058266 10.322530746459961 0.7539448142051697 -0.007261026185005903 0.05763288959860802 -0.08452935516834259 0.06355700641870499 2.270393133163452 -0.6788331270217896 -0.25917959213256836 -0.04401133954524994 0.00827440619468689 -0.009645606391131878 -54.92789840698242 40.493385314941406 -25.413599014282227 24.774320602416992 -23.554080963134766 -65.5312271118164 1.7436811923980713 -14.315570831298828 1.913448452949524 -0.0536995530128479 -0.04284863919019699 -0.042534224689006805 -0.08518152683973312 0.035489197820425034 -0.01698758266866207 -0.025736935436725616 -0.1126931831240654 -0.014706497080624104 -7.613872528076172 5.520426273345947 -0.36836373805999756 0.017869947478175163 -0.020380167290568352 -0.007055987138301134 -2.873708724975586 0.9574083089828491 -0.1369350701570511 -0.08026286214590073 -0.09126220643520355 -0.04069477692246437 -10.244451522827148 0.7169057130813599 -0.03298034891486168 -0.10775280743837357 0.0031265546567738056 0.0027408706955611706 -2.1340761184692383 -0.7375195622444153 0.2997990548610687 0.053296320140361786 0.04504728317260742 -0.01801469177007675 -24.87021255493164 -41.874446868896484 -18.941865921020508 -1.337119221687317 65.11750030517578 2.39548397064209 -4.493716239929199 -11.480016708374023 -9.79340934753418 -0.006515049375593662 -0.10312053561210632 -0.05000991001725197 30.10740089416504 -42.7396240234375 20.93048858642578 1.2425493001937866 65.73483276367188 -2.403923511505127 4.897917747497559 -11.3114013671875 12.996819496154785
-0.23766785139311228 48.47318318104183 0.009376248904840786 -153.13046264648438 69.82658386230469 -134.262939453125 2.3820416927337646 16.26690101623535 -4.251735687255859 7.136434555053711 -11.90045166015625 -0.3602142632007599 -10.487266540527344 23.592323303222656 -18.75501823425293 23.402250289916992 -29.225934982299805 -31.706493377685547 0.15382757782936096 0.07304582744836807 -0.08328349888324738 -0.014285330660641193 0.05657918378710747 0.003217789577320218 -0.08854200690984726 -0.06945094466209412 -0.15514343976974487 46.37997817993164 23.992467880249023 1.6025876998901367 -27.385852813720703 -41.70281982421875 86.32589721679688 -0.37129083275794983 -6.889310359954834 -1.0492982864379883 -0.17639528214931488 -0.097563736140728 -0.22917911410331726 -0.17522193491458893 0.4937727749347687 0.04395591840147972 0.26948121190071106 -0.004310427699238062 0.30365902185440063 7.616002082824707 5.3529558181762695 0.5392712354660034 0.24214471876621246 -0.6485347747802734 0.10981971770524979 3.08054780960083 0.6193880438804626 0.3711092174053192 -0.3990679681301117 -0.07539735734462738 0.4556148946285248 10.051467895507812 0.81211256980896 0.07228823751211166 -0.18611544370651245 -0.30897626280784607 -0.04090828448534012 2.4831063747406006 -0.3385269343852997 -0.30103036761283875 0.003577111754566431 -0.00010560560622252524 -0.22995302081108093 -70.6485824584961 54.9049186706543 1.7876654863357544 27.67448616027832 -39.92686080932617 -85.2581558227539 2.5110270977020264 -34.4544563293457 5.57696533203125 0.0164516381919384 -0.06797952950000763 0.11219757795333862 0.15291273593902588 0.01827438920736313 -0.05673296004533768 -0.1693572998046875 -0.46204903721809387 -0.09218443930149078 -7.666867733001709 5.5838470458984375 -0.17212064564228058 -0.014057532884180546 -0.07626194506883621 -0.1619865447282791 -2.9743731021881104 0.7405728697776794 -0.058767352253198624 -0.23259632289409637 -0.11015933752059937 0.05239993706345558 -10.23664665222168 0.5855339765548706 -0.08636923134326935 0.013665856793522835 0.04306650534272194 0.003252855036407709 -2.1052722930908203 -0.5172210335731506 0.22075504064559937 0.026043733581900597 -0.011440866626799107 -0.06398207694292068 -47.412513732910156 -45.16588592529297 -32.94025802612305 -2.412153720855713 72.81840515136719 4.186758518218994 0.5957918167114258 -16.13545036315918 -0.05741894990205765 0.12559735774993896 -0.06085675209760666 -0.12561535835266113 75.79873657226562 -50.6528205871582 63.077762603759766 173.63067626953125 83.81495666503906 -175.84739685058594 4.416705131530762 -25.056804656982422 9.120528221130371
-0.4214130668362664 47.96163616315373 0.05900995294285407 -146.3894805908203 74.44441986083984 -131.67404174804688 2.89448618888855 19.097213745117188 -5.490045070648193 10.106544494628906 -11.574347496032715 -0.33399897813796997 -9.347204208374023 24.331918716430664 -19.563329696655273 24.072757720947266 -32.13965606689453 -33.27531814575195 0.3124338388442993 0.13031286001205444 -0.13076038658618927 0.13473330438137054 -0.06506167352199554 -0.17079445719718933 -0.059876590967178345 0.23355701565742493 -0.31214219331741333 50.88048553466797 27.152862548828125 0.11891917884349823 -27.12224006652832 -44.131813049316406 90.9961929321289 0.003791455877944827 -6.076711654663086 -1.1868183612823486 0.017296981066465378 0.13261500000953674 -0.03769329562783241 0.02632776089012623 0.146424800157547 -0.28697389364242554 0.08887800574302673 -0.06845933198928833 0.04110407829284668 7.458305358886719 5.198829650878906 0.38927778601646423 0.10555941611528397 -0.3020145893096924 0.409249871969223 2.547872304916382 1.1270140409469604 0.4995850622653961 -0.39874008297920227 0.2831931710243225 -0.13751745223999023 10.376888275146484 0.8511867523193359 -0.18987536430358887 0.2764476239681244 -0.48293229937553406 0.08563363552093506 2.117466688156128 -0.5902895331382751 -0.31708988547325134 -0.23758022487163544 -0.21923595666885376 -0.3513452112674713 -79.4898910522461 54.45476531982422 5.469108581542969 27.49323272705078 -41.446346282958984 -87.19657135009766 1.491000771522522 -32.7892951965332 5.043749809265137 -0.3998265266418457 -0.3966948091983795 -0.352595716714859 0.26395660638809204 0.17171519994735718 0.1708543747663498 -0.09989006072282791 -0.2568589448928833 0.11182542145252228 -7.507077217102051 5.777840614318848 -0.23691047728061676 0.20978474617004395 0.1730739176273346 -0.185381680727005 -2.9585185050964355 1.2006666660308838 -0.2316903918981552 -0.1399410516023636 -0.20127394795417786 0.13304519653320312 -10.386492729187012 0.8742247223854065 0.6144657135009766 -0.22577004134655 0.19046558439731598 0.14256544411182404 -1.851818561553955 -0.5230288505554199 0.4068085253238678 0.38395801186561584 -0.07498754560947418 0.305425763130188 -45.51980972290039 -48.522342681884766 -33.96717834472656 -3.3451168537139893 76.5614242553711 5.050726890563965 1.8631662130355835 -18.697647094726562 1.0876131057739258 0.3206128776073456 -0.1477925330400467 -0.16574709117412567 74.63480377197266 -56.99281692504883 61.78224563598633 165.59841918945312 84.46305847167969 -167.19554138183594 3.1173431873321533 -24.282238006591797 9.239068984985352
